<svg width="59" height="46" viewBox="0 0 59 46" fill="none" xmlns="http://www.w3.org/2000/svg">
<path d="M1.45801 10.2062C1.45801 7.79042 3.4164 5.83203 5.8322 5.83203H52.4903C54.9061 5.83203 56.8645 7.79042 56.8645 10.2062V40.8256C56.8645 43.2414 54.9061 45.1998 52.4903 45.1998H7.29027C4.0692 45.1998 1.45801 42.5886 1.45801 39.3675V10.2062Z" fill="#021024" fill-opacity="0.1"/>
<path fill-rule="evenodd" clip-rule="evenodd" d="M7.29027 1.45801C4.0692 1.45801 1.45801 4.0692 1.45801 7.29027V10.2064V11.6645V36.4516C1.45801 39.6726 4.0692 42.2838 7.29027 42.2838H51.0322C52.6427 42.2838 53.9483 40.9782 53.9483 39.3677V10.2064C53.9483 8.59586 52.6427 7.29027 51.0322 7.29027V4.37414C51.0322 2.7636 49.7266 1.45801 48.1161 1.45801H7.29027Z" fill="#955821"/>
<path fill-rule="evenodd" clip-rule="evenodd" d="M0 7.29032C0 3.26399 3.26399 0 7.29032 0H48.1161C50.5319 0 52.4903 1.95839 52.4903 4.37419V6.08116C54.1892 6.68164 55.4065 8.3019 55.4065 10.2065V39.3677C55.4065 41.7835 53.4481 43.7419 51.0323 43.7419H7.29032C3.26399 43.7419 0 40.4779 0 36.4516V7.29032ZM51.0323 7.29032C52.6428 7.29032 53.9484 8.59592 53.9484 10.2065V39.3677C53.9484 40.9783 52.6428 42.2839 51.0323 42.2839H7.29032C4.06926 42.2839 1.45806 39.6727 1.45806 36.4516V7.29032C1.45806 4.06926 4.06926 1.45806 7.29032 1.45806H48.1161C49.7267 1.45806 51.0323 2.76366 51.0323 4.37419V7.29032Z" fill="#5F320B"/>
<path fill-rule="evenodd" clip-rule="evenodd" d="M2.91653 8.01953C3.31917 8.01953 3.64556 8.34593 3.64556 8.74856V37.9099C3.64556 38.3125 3.31917 38.6389 2.91653 38.6389C2.5139 38.6389 2.1875 38.3125 2.1875 37.9099V8.74856C2.1875 8.34593 2.5139 8.01953 2.91653 8.01953Z" fill="#C87E3B"/>
<path d="M48.116 1.45801H6.56112C5.35322 1.45801 4.37402 2.43721 4.37402 3.64511C4.37403 4.85301 5.35322 5.8322 6.56112 5.8322H51.0321V4.37414C51.0321 2.7636 49.7265 1.45801 48.116 1.45801Z" fill="#824B19"/>
<path d="M51.0321 7.29015V4.37402H5.83209C5.02682 4.37402 4.37402 5.02683 4.37402 5.8321C4.37403 6.63736 5.02682 7.29015 5.83209 7.29015H51.0321Z" fill="#713E12"/>
<path fill-rule="evenodd" clip-rule="evenodd" d="M6.56118 1.45806C5.35328 1.45806 4.37408 2.43726 4.37408 3.64516C4.37408 4.85306 5.35328 5.83226 6.56118 5.83226H51.7612C52.1638 5.83226 52.4902 6.15866 52.4902 6.56129C52.4902 6.96392 52.1638 7.29032 51.7612 7.29032H6.56118C4.54801 7.29032 2.91602 5.65833 2.91602 3.64516C2.91602 1.63199 4.54801 0 6.56118 0H18.9547C19.3574 0 19.6838 0.326399 19.6838 0.729032C19.6838 1.13167 19.3574 1.45806 18.9547 1.45806H6.56118Z" fill="#5F320B"/>
<path d="M40.8262 34.9937C40.8262 35.3963 40.4998 35.7227 40.0972 35.7227C39.6946 35.7227 39.3682 35.3963 39.3682 34.9937C39.3682 34.591 39.6946 34.2646 40.0972 34.2646C40.4998 34.2646 40.8262 34.591 40.8262 34.9937Z" fill="#7E4919"/>
<path d="M43.7422 34.2652C43.7422 34.6678 43.4158 34.9942 43.0132 34.9942C42.6106 34.9942 42.2842 34.6678 42.2842 34.2652C42.2842 33.8625 42.6106 33.5361 43.0132 33.5361C43.4158 33.5361 43.7422 33.8625 43.7422 34.2652Z" fill="#7E4919"/>
<path d="M44.4713 36.8162C44.4713 37.4202 43.9817 37.9098 43.3777 37.9098C42.7738 37.9098 42.2842 37.4202 42.2842 36.8162C42.2842 36.2123 42.7738 35.7227 43.3777 35.7227C43.9817 35.7227 44.4713 36.2123 44.4713 36.8162Z" fill="#7E4919"/>
<path d="M51.7613 38.2742C51.7613 38.8782 51.2717 39.3678 50.6678 39.3678C50.0638 39.3678 49.5742 38.8782 49.5742 38.2742C49.5742 37.6703 50.0638 37.1807 50.6678 37.1807C51.2717 37.1807 51.7613 37.6703 51.7613 38.2742Z" fill="#7E4919"/>
<path d="M41.5553 38.2742C41.5553 38.8782 41.0657 39.3678 40.4617 39.3678C39.8578 39.3678 39.3682 38.8782 39.3682 38.2742C39.3682 37.6703 39.8578 37.1807 40.4617 37.1807C41.0657 37.1807 41.5553 37.6703 41.5553 38.2742Z" fill="#7E4919"/>
<path d="M37.1807 37.1812C37.1807 37.5838 36.8543 37.9102 36.4517 37.9102C36.0491 37.9102 35.7227 37.5838 35.7227 37.1812C35.7227 36.7785 36.0491 36.4521 36.4517 36.4521C36.8543 36.4521 37.1807 36.7785 37.1807 37.1812Z" fill="#7E4919"/>
<path d="M34.2647 39.3677C34.2647 39.7703 33.9383 40.0967 33.5357 40.0967C33.133 40.0967 32.8066 39.7703 32.8066 39.3677C32.8066 38.9651 33.133 38.6387 33.5357 38.6387C33.9383 38.6387 34.2647 38.9651 34.2647 39.3677Z" fill="#7E4919"/>
<path d="M51.7618 30.6197C51.7618 31.0223 51.4354 31.3487 51.0327 31.3487C50.6301 31.3487 50.3037 31.0223 50.3037 30.6197C50.3037 30.217 50.6301 29.8906 51.0327 29.8906C51.4354 29.8906 51.7618 30.217 51.7618 30.6197Z" fill="#7E4919"/>
<path d="M45.9288 31.3491C45.9288 31.7518 45.6024 32.0782 45.1997 32.0782C44.7971 32.0782 44.4707 31.7518 44.4707 31.3491C44.4707 30.9465 44.7971 30.6201 45.1997 30.6201C45.6024 30.6201 45.9288 30.9465 45.9288 31.3491Z" fill="#7E4919"/>
<path d="M43.0128 40.0972C43.0128 40.4998 42.6864 40.8262 42.2837 40.8262C41.8811 40.8262 41.5547 40.4998 41.5547 40.0972C41.5547 39.6946 41.8811 39.3682 42.2837 39.3682C42.6864 39.3682 43.0128 39.6946 43.0128 40.0972Z" fill="#7E4919"/>
<path d="M37.9102 40.0972C37.9102 40.4998 37.5838 40.8262 37.1812 40.8262C36.7785 40.8262 36.4521 40.4998 36.4521 40.0972C36.4521 39.6946 36.7785 39.3682 37.1812 39.3682C37.5838 39.3682 37.9102 39.6946 37.9102 40.0972Z" fill="#7E4919"/>
<path d="M46.6583 34.9937C46.6583 35.3963 46.3319 35.7227 45.9292 35.7227C45.5266 35.7227 45.2002 35.3963 45.2002 34.9937C45.2002 34.591 45.5266 34.2646 45.9292 34.2646C46.3319 34.2646 46.6583 34.591 46.6583 34.9937Z" fill="#7E4919"/>
<path d="M48.8458 36.4517C48.8458 36.8543 48.5194 37.1807 48.1167 37.1807C47.7141 37.1807 47.3877 36.8543 47.3877 36.4517C47.3877 36.0491 47.7141 35.7227 48.1167 35.7227C48.5194 35.7227 48.8458 36.0491 48.8458 36.4517Z" fill="#7E4919"/>
<path d="M52.4903 34.2652C52.4903 34.6678 52.1639 34.9942 51.7613 34.9942C51.3586 34.9942 51.0322 34.6678 51.0322 34.2652C51.0322 33.8625 51.3586 33.5361 51.7613 33.5361C52.1639 33.5361 52.4903 33.8625 52.4903 34.2652Z" fill="#7E4919"/>
<path d="M49.5748 33.1717C49.5748 33.7756 49.0852 34.2652 48.4812 34.2652C47.8773 34.2652 47.3877 33.7756 47.3877 33.1717C47.3877 32.5677 47.8773 32.0781 48.4812 32.0781C49.0852 32.0781 49.5748 32.5677 49.5748 33.1717Z" fill="#7E4919"/>
<path d="M45.9288 38.6392C45.9288 39.0418 45.6024 39.3682 45.1997 39.3682C44.7971 39.3682 44.4707 39.0418 44.4707 38.6392C44.4707 38.2366 44.7971 37.9102 45.1997 37.9102C45.6024 37.9102 45.9288 38.2366 45.9288 38.6392Z" fill="#7E4919"/>
<path d="M48.1163 40.0972C48.1163 40.4998 47.7899 40.8262 47.3872 40.8262C46.9846 40.8262 46.6582 40.4998 46.6582 40.0972C46.6582 39.6946 46.9846 39.3682 47.3872 39.3682C47.7899 39.3682 48.1163 39.6946 48.1163 40.0972Z" fill="#7E4919"/>
<path d="M39.3682 25.5163C39.3682 23.5031 41.0002 21.8711 43.0133 21.8711H55.4069C56.2121 21.8711 56.8649 22.5239 56.8649 23.3292V27.7034C56.8649 28.5086 56.2121 29.1614 55.4069 29.1614H43.0133C41.0002 29.1614 39.3682 27.5294 39.3682 25.5163Z" fill="#B16A29"/>
<path fill-rule="evenodd" clip-rule="evenodd" d="M43.0134 20.4131H55.4069C57.0175 20.4131 58.3231 21.7187 58.3231 23.3292V27.7034C58.3231 29.3139 57.0175 30.6195 55.4069 30.6195H43.0134C40.1949 30.6195 37.9102 28.3347 37.9102 25.5163C37.9102 22.6979 40.1949 20.4131 43.0134 20.4131ZM43.0134 21.8712C41.0002 21.8712 39.3682 23.5031 39.3682 25.5163C39.3682 27.5295 41.0002 29.1615 43.0134 29.1615H55.4069C56.2122 29.1615 56.865 28.5087 56.865 27.7034V23.3292C56.865 22.5239 56.2122 21.8712 55.4069 21.8712H43.0134Z" fill="#5F320B"/>
<path fill-rule="evenodd" clip-rule="evenodd" d="M39.3682 25.5163C39.3682 23.5031 41.0002 21.8711 43.0133 21.8711H54.6778C55.0805 21.8711 55.4069 22.1975 55.4069 22.6001C55.4069 23.0028 55.0805 23.3292 54.6778 23.3292H43.0133C41.8054 23.3292 40.8262 24.3084 40.8262 25.5163H39.3682Z" fill="#DD893D"/>
<path fill-rule="evenodd" clip-rule="evenodd" d="M39.3682 25.5163C39.3682 23.5031 41.0002 21.8711 43.0133 21.8711H43.7424C44.145 21.8711 44.4714 22.1975 44.4714 22.6001C44.4714 23.0028 44.145 23.3292 43.7424 23.3292H43.0133C41.8054 23.3292 40.8262 24.3084 40.8262 25.5163V26.2453C40.8262 26.6479 40.4998 26.9743 40.0972 26.9743C39.6946 26.9743 39.3682 26.6479 39.3682 26.2453V25.5163Z" fill="#FEBB7D"/>
<path d="M45.2004 25.5162C45.2004 26.7241 44.2212 27.7033 43.0133 27.7033C41.8054 27.7033 40.8262 26.7241 40.8262 25.5162C40.8262 24.3083 41.8054 23.3291 43.0133 23.3291C44.2212 23.3291 45.2004 24.3083 45.2004 25.5162Z" fill="#5F320B"/>
<path fill-rule="evenodd" clip-rule="evenodd" d="M5.83203 2.18704C5.83203 1.78441 6.15843 1.45801 6.56106 1.45801H46.6578C47.0605 1.45801 47.3869 1.78441 47.3869 2.18704C47.3869 2.58967 47.0605 2.91607 46.6578 2.91607H6.56106C6.15843 2.91607 5.83203 2.58967 5.83203 2.18704Z" fill="#955821"/>
<path fill-rule="evenodd" clip-rule="evenodd" d="M6.56152 8.01907C6.56152 7.61644 6.88792 7.29004 7.29056 7.29004H49.5744C49.9771 7.29004 50.3035 7.61644 50.3035 8.01907C50.3035 8.4217 49.9771 8.7481 49.5744 8.7481H7.29056C6.88792 8.7481 6.56152 8.4217 6.56152 8.01907Z" fill="#C87E3B"/>
<path fill-rule="evenodd" clip-rule="evenodd" d="M2.90582 5.20752C3.25107 5.00036 3.69889 5.11232 3.90604 5.45757C4.38562 6.25687 4.91835 6.69751 5.45734 6.94904C6.00748 7.20577 6.6182 7.29072 7.29058 7.29072H17.497C17.8997 7.29072 18.2261 7.61712 18.2261 8.01976C18.2261 8.42239 17.8997 8.74879 17.497 8.74879H7.29058C6.50489 8.74879 5.65755 8.65148 4.84075 8.27031C4.0128 7.88394 3.26973 7.23103 2.65576 6.20774C2.44861 5.86249 2.56056 5.41467 2.90582 5.20752Z" fill="#EC974A"/>
<circle cx="24.787" cy="25.5165" r="10.4774" stroke="#5F320B" stroke-width="2"/>
<path d="M16.0381 25.5169C16.0381 20.6853 19.9549 16.7686 24.7865 16.7686" stroke="#C87E3B" stroke-width="2" stroke-linecap="round" stroke-linejoin="round"/>
<path d="M18.2256 26.9746H24.0578" stroke="#5F320B" stroke-width="2" stroke-linecap="round" stroke-linejoin="round"/>
<path d="M18.2256 24.0586H24.0578" stroke="#5F320B" stroke-width="2" stroke-linecap="round" stroke-linejoin="round"/>
</svg>
