<svg width="38" height="28" viewBox="0 0 38 28" fill="none" xmlns="http://www.w3.org/2000/svg">
<path d="M6.09049 20.2237L3.2973 20.207C2.76491 20.2039 2.33069 20.6329 2.32745 21.1654L2.29438 26.7116C2.29123 27.244 2.72021 27.6782 3.2527 27.6815L6.04588 27.6982C6.57827 27.7013 7.0125 27.2723 7.01574 26.7398L7.04881 21.1936C7.05205 20.6611 6.62297 20.227 6.09049 20.2237Z" fill="#2F4859"/>
<path d="M34.5142 20.3937L31.721 20.377C31.1886 20.3738 30.7544 20.8028 30.7512 21.3353L30.7182 26.8816C30.7151 27.414 31.144 27.8483 31.6765 27.8515L34.4697 27.8682C35.0021 27.8713 35.4363 27.4423 35.4396 26.9099L35.4726 21.3636C35.4758 20.8311 35.0467 20.3969 34.5142 20.3937Z" fill="#2F4859"/>
<path d="M2.91344 6.71586C3.14675 6.73788 3.32421 6.93507 3.32174 7.16934C3.26427 7.62662 3.55734 8.05484 4.00433 8.16692L4.69922 8.17121L4.34239 9.21264C4.34239 9.21264 -0.131458 9.18576 0.00235415 7.71631C0.106049 6.57585 2.04785 6.63285 2.91344 6.71586Z" fill="#2F4859"/>
<path d="M35.086 6.71586C34.8527 6.73788 34.6752 6.93507 34.6777 7.16934C34.7351 7.62662 34.4421 8.05484 33.9951 8.16692L33.3002 8.17121L33.657 9.21264C33.657 9.21264 38.1309 9.18576 37.9971 7.71631C37.8934 6.57585 35.9516 6.63285 35.086 6.71586Z" fill="#2F4859"/>
<path d="M1.00095 15.4423C1.08453 14.3494 1.40048 13.287 1.92782 12.3261L3.81358 8.86763C3.81358 8.86763 7.16213 1.32001 8.55715 0.719384C9.90594 0.138578 18.5152 0.00800586 19.0856 0H19.1172C19.6876 0.0150586 28.2946 0.248468 29.6362 0.845285C31.0241 1.4624 34.2841 9.04815 34.2841 9.04815L36.1269 12.5292C36.6424 13.4963 36.9457 14.5621 37.0165 15.6557C37.1461 18.0714 36.8858 20.4923 36.2457 22.8253C35.9442 23.9255 34.9393 24.6845 33.7985 24.6738L18.9706 24.588H18.939L4.11113 24.4998C2.97049 24.4967 1.97499 23.7258 1.68659 22.6221C1.07367 20.2812 0.842163 17.8568 1.00095 15.4423Z" fill="#D84544"/>
<path d="M26.2115 19.9271L11.7619 19.8408C11.5034 19.8393 11.2925 20.0476 11.291 20.3061L11.2763 22.7665C11.2748 23.0251 11.4831 23.2359 11.7416 23.2374L26.1912 23.3237C26.4497 23.3252 26.6605 23.1168 26.6621 22.8584L26.6767 20.398C26.6783 20.1394 26.4699 19.9286 26.2115 19.9271Z" fill="#3A556A"/>
<path d="M8.28565 1.85745C8.43652 1.52892 8.7619 1.31553 9.12341 1.30819L19.0037 1.10547H19.0348L28.9122 1.42609C29.2733 1.4379 29.596 1.65501 29.7429 1.98516L32.5771 8.3603L18.9929 8.2792H18.9618L5.37571 8.19809L8.28565 1.85745Z" fill="#2F4859"/>
<path d="M5.07161 19.4258C6.02402 19.4313 6.79163 20.2078 6.7861 21.1602C6.78058 22.1126 6.0041 22.8802 5.05169 22.8747C4.09928 22.8692 3.33167 22.0927 3.3372 21.1403C3.3372 21.14 3.3372 21.1397 3.3372 21.1394C3.3432 20.1874 4.11958 19.4203 5.07161 19.4258Z" fill="#EBF0F3"/>
<path d="M32.7615 19.5909C33.7139 19.5966 34.4814 20.3733 34.4756 21.3257C34.4698 22.2782 33.6931 23.0456 32.7407 23.0398C31.7883 23.034 31.0209 22.2573 31.0266 21.305C31.0325 20.3526 31.8091 19.5851 32.7615 19.5909Z" fill="#EBF0F3"/>
<path d="M25.4551 15.5537H12.8783V17.1236H25.4551V15.5537Z" fill="#3A556A"/>
<path d="M2.65085 13.0854C2.69241 12.718 3.02399 12.4539 3.3913 12.4955C3.41989 12.4988 3.4483 12.5038 3.47632 12.5108L9.22777 13.917C9.40047 13.9595 9.54924 14.0689 9.64121 14.2211L10.7806 16.1068C10.9714 16.4229 10.87 16.8338 10.554 17.0247C10.4497 17.0877 10.3302 17.1209 10.2084 17.1209H4.58894C4.45751 17.1219 4.32875 17.0843 4.21838 17.0129C2.89275 16.1351 2.47787 14.7675 2.65085 13.0854Z" fill="#E1E6E9"/>
<path d="M5.37536 13.6192C6.07072 13.6476 6.6114 14.2344 6.58291 14.9298C6.55451 15.6252 5.96769 16.1658 5.27233 16.1373C4.57706 16.1089 4.03638 15.5223 4.06468 14.827C4.09337 14.1317 4.67999 13.591 5.37536 13.6192Z" fill="#BDBEC1"/>
<path d="M8.04588 14.8211C8.57475 14.8424 8.98629 15.2884 8.96503 15.8173C8.94378 16.3461 8.49774 16.7577 7.96888 16.7364C7.44001 16.7152 7.02847 16.2691 7.04972 15.7402C7.04972 15.74 7.04972 15.7398 7.04972 15.7395C7.07136 15.2109 7.51721 14.7998 8.04588 14.8211Z" fill="#BDBEC1"/>
<path d="M35.3495 13.0854C35.308 12.718 34.9764 12.4539 34.6091 12.4955C34.5805 12.4988 34.5521 12.5038 34.524 12.5108L28.7726 13.917C28.5999 13.9595 28.4511 14.0689 28.3592 14.2211L27.2197 16.1068C27.0289 16.4229 27.1303 16.8338 27.4464 17.0247C27.5507 17.0877 27.6702 17.1209 27.792 17.1209H33.4114C33.5429 17.1219 33.6716 17.0843 33.782 17.0129C35.1077 16.1351 35.5225 14.7675 35.3495 13.0854Z" fill="#E1E6E9"/>
<path d="M32.6248 13.6192C31.9294 13.6476 31.3887 14.2344 31.4172 14.9298C31.4456 15.6252 32.0324 16.1658 32.7278 16.1373C33.4231 16.1089 33.9638 15.5223 33.9355 14.827C33.9068 14.1317 33.3202 13.591 32.6248 13.6192Z" fill="#BDBEC1"/>
<path d="M29.9562 14.8211C29.4273 14.8424 29.0158 15.2884 29.037 15.8173C29.0583 16.3461 29.5043 16.7577 30.0332 16.7364C30.5621 16.7152 30.9736 16.2691 30.9523 15.7402C30.9523 15.74 30.9523 15.7398 30.9523 15.7395C30.9307 15.2109 30.4849 14.7998 29.9562 14.8211Z" fill="#BDBEC1"/>
</svg>
