<svg xmlns="http://www.w3.org/2000/svg" width="18" height="18" viewBox="0 0 18 18">
  <g id="Group_6" data-name="Group 6" transform="translate(-1607 -460)">
    <circle id="Ellipse_1" data-name="Ellipse 1" cx="9" cy="9" r="9" transform="translate(1607 460)" fill="#5447bd"/>
    <path id="Path_45" data-name="Path 45" d="M.222.21A.712.712,0,0,0,.058.442a.677.677,0,0,0,0,.547.712.712,0,0,0,.164.232L3.168,4,.222,6.781a.686.686,0,0,0,0,1.01.789.789,0,0,0,1.071,0L4.778,4.5a.713.713,0,0,0,.164-.232.676.676,0,0,0,0-.547.712.712,0,0,0-.164-.232L1.293.2A.8.8,0,0,0,.222.21Z" transform="translate(1614 465)" fill="#fff"/>
  </g>
</svg>
