<svg width="20" height="13" viewBox="0 0 20 13" fill="none" xmlns="http://www.w3.org/2000/svg">
<path d="M14.0285 0H1.38347C1.18951 0 1.03223 0.157281 1.03223 0.351243V7.72747H2.08596C2.47392 7.72747 2.78844 8.04195 2.78844 8.42996C2.78844 8.81792 2.47388 9.13244 2.08596 9.13244H1.03223V10.1862C1.03223 10.3801 1.18951 10.5374 1.38347 10.5374H14.3797V0.351243C14.3797 0.157281 14.2224 0 14.0285 0Z" fill="#272265"/>
<path d="M18.5939 5.62012H14.3789V10.5376H19.9989V7.02509C19.9989 6.24916 19.3698 5.62012 18.5939 5.62012Z" fill="#272265"/>
<path d="M14.3789 6.67383H18.1841C18.5721 6.67383 18.8866 6.98831 18.8866 7.37632V10.5375H14.3789V6.67383Z" fill="#272265"/>
<path d="M17.1889 1.40527H14.3789V2.81029H18.2427V2.45904C18.2427 1.87703 17.7709 1.40527 17.1889 1.40527Z" fill="#272265"/>
<path d="M18.5939 5.61956L17.8914 2.80957H14.3789V5.61956H18.5939Z" fill="white"/>
<path d="M18.5947 7.02539H19.9997V8.4304H19.2973C18.9092 8.4304 18.5948 8.11592 18.5948 7.72792V7.02539H18.5947Z" fill="#F1F4FB"/>
<path d="M16.8376 8.0791C15.779 8.0791 14.858 8.66505 14.3789 9.52979V10.5378H19.6234C19.4501 9.15205 18.2703 8.0791 16.8376 8.0791Z" fill="#272265"/>
<path d="M18.8877 8.96875V10.5379H19.6245C19.5491 9.93458 19.2826 9.39077 18.8877 8.96875Z" fill="#272265"/>
<path d="M16.8383 12.6453C17.8082 12.6453 18.5945 11.859 18.5945 10.8891C18.5945 9.91912 17.8082 9.13281 16.8383 9.13281C15.8683 9.13281 15.082 9.91912 15.082 10.8891C15.082 11.859 15.8683 12.6453 16.8383 12.6453Z" fill="#272265"/>
<path d="M15.7839 3.8633H18.1548L17.8914 2.80957H14.3789V5.61956H15.4326V4.21454C15.4326 4.02058 15.5899 3.8633 15.7839 3.8633Z" fill="#272265"/>
<path d="M5.24723 8.0791C4.36027 8.0791 3.57053 8.49101 3.0556 9.13283H2.086H1.03223V10.1866C1.03223 10.3805 1.18951 10.5378 1.38347 10.5378H14.3797V9.13279H7.43885C6.92392 8.49101 6.13418 8.0791 5.24723 8.0791Z" fill="#272265"/>
<path d="M5.24844 12.6453C6.2184 12.6453 7.0047 11.859 7.0047 10.8891C7.0047 9.91912 6.2184 9.13281 5.24844 9.13281C4.27849 9.13281 3.49219 9.91912 3.49219 10.8891C3.49219 11.859 4.27849 12.6453 5.24844 12.6453Z" fill="#272265"/>
<path d="M5.24793 10.208C4.87266 10.208 4.56738 10.5133 4.56738 10.8886C4.56738 11.2638 4.87266 11.5691 5.24793 11.5691C5.62321 11.5691 5.92849 11.2638 5.92849 10.8886C5.92849 10.5133 5.62321 10.208 5.24793 10.208Z" fill="#F5F5F5"/>
<path d="M16.8383 10.208C16.463 10.208 16.1577 10.5133 16.1577 10.8886C16.1577 11.2638 16.463 11.5691 16.8383 11.5691C17.2135 11.5691 17.5188 11.2638 17.5188 10.8886C17.5188 10.5133 17.2135 10.208 16.8383 10.208Z" fill="#F5F5F5"/>
<path d="M0.329308 8.05705H4.54431C4.72615 8.05705 4.87362 7.90963 4.87362 7.72775C4.87362 7.5459 4.72619 7.39844 4.54431 7.39844H0.329308C0.147464 7.39844 0 7.54586 0 7.72775C0 7.90963 0.147464 8.05705 0.329308 8.05705Z" fill="#272265"/>
<path d="M10.2835 2.92846L7.35506 5.85683L5.83167 4.33343C5.70306 4.20482 5.49456 4.20482 5.36599 4.33343C5.23738 4.46204 5.23738 4.6705 5.36599 4.79911L7.12224 6.55537C7.18653 6.61969 7.27082 6.65181 7.35506 6.65181C7.43931 6.65181 7.5236 6.61969 7.58789 6.55537L10.7491 3.39414C10.8777 3.26553 10.8777 3.05707 10.7491 2.92846C10.6206 2.79989 10.412 2.79989 10.2835 2.92846Z" fill="white"/>
</svg>
