<svg width="10" height="10" viewBox="0 0 10 10" fill="none" xmlns="http://www.w3.org/2000/svg">
<path d="M5.52172 0.305661C5.32612 0.110007 5.06082 5.90848e-05 4.78417 0H1.04321C0.766534 0 0.501189 0.109909 0.305549 0.305549C0.109909 0.501189 0 0.766534 0 1.04321V4.78417C5.90848e-05 5.06082 0.110007 5.32612 0.305661 5.52172L4.47851 9.69456C4.67414 9.89013 4.93943 10 5.21606 10C5.49268 10 5.75798 9.89013 5.95361 9.69456L9.69456 5.95361C9.89013 5.75798 10 5.49268 10 5.21606C10 4.93943 9.89013 4.67414 9.69456 4.47851L5.52172 0.305661ZM2.60803 3.65124C2.33128 3.65117 2.0659 3.54117 1.87026 3.34543C1.67462 3.14969 1.56475 2.88425 1.56482 2.60751C1.56489 2.33076 1.67489 2.06538 1.87063 1.86974C2.06637 1.6741 2.3318 1.56423 2.60855 1.5643C2.8853 1.56436 3.15068 1.67437 3.34632 1.87011C3.54196 2.06584 3.65183 2.33128 3.65176 2.60803C3.65169 2.88477 3.54169 3.15016 3.34595 3.3458C3.15021 3.54144 2.88477 3.65131 2.60803 3.65124Z" fill="#606E7D"/>
</svg>
