<svg width="17" height="13" viewBox="0 0 17 13" fill="none" xmlns="http://www.w3.org/2000/svg">
<path d="M0 3.9C0 2.53487 0 1.85231 0.265672 1.3309C0.499363 0.872253 0.872253 0.499363 1.3309 0.265672C1.85231 0 2.53487 0 3.9 0H12.35C13.7151 0 14.3977 0 14.9191 0.265672C15.3777 0.499363 15.7506 0.872253 15.9843 1.3309C16.25 1.85231 16.25 2.53487 16.25 3.9V9.1C16.25 10.4651 16.25 11.1477 15.9843 11.6691C15.7506 12.1277 15.3777 12.5006 14.9191 12.7343C14.3977 13 13.7151 13 12.35 13H3.9C2.53487 13 1.85231 13 1.3309 12.7343C0.872253 12.5006 0.499363 12.1277 0.265672 11.6691C0 11.1477 0 10.4651 0 9.1V3.9Z" fill="#272265"/>
<path fill-rule="evenodd" clip-rule="evenodd" d="M12.1865 4.0625H16.249V8.9375H12.1865C10.8403 8.9375 9.74902 7.84619 9.74902 6.5C9.74902 5.15381 10.8403 4.0625 12.1865 4.0625ZM12.1865 7.3125C12.6353 7.3125 12.999 6.94873 12.999 6.5C12.999 6.05127 12.6353 5.6875 12.1865 5.6875C11.7378 5.6875 11.374 6.05127 11.374 6.5C11.374 6.94873 11.7378 7.3125 12.1865 7.3125Z" fill="white"/>
</svg>
