<svg width="15" height="15" viewBox="0 0 15 15" fill="none" xmlns="http://www.w3.org/2000/svg">
<path d="M0 3.70357V11.2969C0 12.3432 0.853559 13.1967 1.89986 13.1967H8.03692C9.08321 13.1967 9.93677 12.3432 9.93677 11.2969V10.067C9.93677 9.85898 9.76851 9.69072 9.56047 9.69072C9.35244 9.69072 9.18417 9.85898 9.18417 10.067V11.2969C9.18417 11.9302 8.66714 12.4472 8.03386 12.4472H1.89986C1.26657 12.4472 0.749541 11.9302 0.749541 11.2969V3.70357C0.749541 3.07028 1.26657 2.55325 1.89986 2.55325H8.03692C8.6702 2.55325 9.18723 3.07028 9.18723 3.70357V4.93343C9.18723 5.14146 9.3555 5.30973 9.56353 5.30973C9.77157 5.30973 9.93983 5.14146 9.93983 4.93343V3.70357C9.93983 2.65727 9.08627 1.80371 8.03998 1.80371H1.89986C0.853559 1.80371 0 2.65421 0 3.70357Z" fill="#272265"/>
<path d="M11.7908 10.3296C11.8642 10.4031 11.9591 10.4398 12.057 10.4398C12.1549 10.4398 12.2497 10.4031 12.3231 10.3296L14.8899 7.76284C15.0368 7.61599 15.0368 7.38042 14.8899 7.23357L12.3231 4.66678C12.1763 4.51993 11.9407 4.51993 11.7939 4.66678C11.647 4.81363 11.647 5.0492 11.7939 5.19605L13.7213 7.12344H6.68782C6.47979 7.12344 6.31152 7.2917 6.31152 7.49974C6.31152 7.70777 6.47979 7.87604 6.68782 7.87604H13.7182L11.7908 9.80343C11.644 9.94722 11.644 10.1858 11.7908 10.3296Z" fill="#272265"/>
</svg>
