<svg width="22" height="23" viewBox="0 0 22 23" fill="none" xmlns="http://www.w3.org/2000/svg">
<path d="M15.0874 13.3783C14.7172 13.0702 14.2413 12.8848 13.722 12.8848H4.27029C3.87017 12.8848 3.4959 12.995 3.17578 13.1865V18.7451C3.52162 18.9335 3.7995 19.2311 3.96385 19.5911H15.0874L15.0874 13.3783Z" fill="#272265"/>
<path d="M9.10445 14.3118C9.07417 14.3377 9.03558 14.352 8.99577 14.352C8.95595 14.352 8.9174 14.3377 8.88712 14.3119L8.68213 14.1367V19.5914H9.3094V14.1367L9.10445 14.3118Z" fill="white"/>
<path d="M4.26993 12.8848C3.88705 12.8848 3.52804 12.986 3.21729 13.1624V18.7202C3.56693 18.9165 3.84652 19.2222 4.00999 19.5911H4.31418V15.0207C4.31418 13.8411 5.27043 12.8848 6.45008 12.8848H4.26993Z" fill="#272265"/>
<path d="M3.10772 16.3037H1.49408L1.39844 16.3455V18.7699C1.66624 18.6147 1.97674 18.5253 2.30794 18.5253C2.63914 18.5253 2.94964 18.6147 3.21745 18.7699V16.3455L3.10772 16.3037Z" fill="white"/>
<path d="M2.34391 11.5811C2.33211 11.5813 2.32032 11.5814 2.30857 11.5814C1.98548 11.5814 1.67762 11.5122 1.39844 11.3887V13.8261L1.50466 13.8679H3.10629L3.2174 13.8261V11.3892C2.94897 11.5081 2.65374 11.5763 2.34391 11.5811Z" fill="white"/>
<path d="M13.577 19.5909V17.8802C13.577 17.8089 13.5191 17.751 13.4477 17.751H11.1644C11.093 17.751 11.0352 17.8089 11.0352 17.8802V19.5909H13.577Z" fill="white"/>
<path d="M12.1983 17.751H11.1644C11.093 17.751 11.0352 17.8089 11.0352 17.8802V19.5909H12.0691V17.8802C12.0691 17.8089 12.1269 17.751 12.1983 17.751Z" fill="white"/>
<path d="M11.4276 12.5362L10.7249 12.0977C10.3835 12.2734 9.99688 12.3734 9.5871 12.3734H8.40323C7.9935 12.3734 7.60684 12.2735 7.2654 12.0977L6.56277 12.5362C6.52371 12.5605 6.5 12.6033 6.5 12.6493V15.412C6.5 15.5239 6.62947 15.5861 6.71679 15.5161L8.91178 13.7581C8.96054 13.719 9.02983 13.719 9.07855 13.7581L11.2735 15.5161C11.3609 15.5861 11.4903 15.5239 11.4903 15.412V12.6493C11.4904 12.6033 11.4667 12.5605 11.4276 12.5362Z" fill="white"/>
<path d="M8.40323 12.3734C7.9935 12.3734 7.60684 12.2735 7.2654 12.0977L6.56277 12.5362C6.52371 12.5605 6.5 12.6033 6.5 12.6493V15.412C6.5 15.5239 6.62947 15.5861 6.71679 15.5161L7.54454 14.8532V13.0404C7.54454 12.9943 7.56825 12.9516 7.6073 12.9272L8.49473 12.3734H8.40323Z" fill="white"/>
<path d="M9.58827 12.3738H8.4044C8.19665 12.3738 7.99487 12.3479 7.80176 12.2998V13.3423C7.80176 13.4035 7.82852 13.4616 7.87502 13.5013L8.86051 14.3432C8.93871 14.41 9.05392 14.41 9.13212 14.3432L10.1176 13.5013C10.1641 13.4616 10.1909 13.4035 10.1909 13.3423V12.2998C9.9978 12.3479 9.79603 12.3738 9.58827 12.3738Z" fill="white"/>
<path d="M8.84772 13.3421V12.4154H8.4044C8.19669 12.4154 7.995 12.3899 7.80176 12.3428V13.3421C7.80176 13.4033 7.82852 13.4614 7.87502 13.5011L8.86051 14.343C8.93871 14.4098 9.05392 14.4098 9.13212 14.343L9.51927 14.0122L8.92094 13.5011C8.87448 13.4613 8.84772 13.4032 8.84772 13.3421Z" fill="white"/>
<path d="M5.90873 7.04688H4.66004C4.41553 7.2548 4.26025 7.56446 4.26025 7.91055V8.46698C4.26025 9.093 4.76776 9.6005 5.39378 9.6005H5.90873V7.04688Z" fill="#272265"/>
<path d="M13.3312 7.04688H12.0825V9.6005H12.5975C13.2235 9.6005 13.731 9.093 13.731 8.46698V7.91055C13.731 7.56446 13.5757 7.2548 13.3312 7.04688Z" fill="#272265"/>
<path d="M5.8667 7.0459V9.87858C5.8667 11.2797 7.00248 12.4154 8.40356 12.4154H9.58743C10.9885 12.4154 12.1243 11.2797 12.1243 9.87858V7.0459H5.8667Z" fill="#272265"/>
<path d="M7.32942 9.87858V7.0459H5.8667V9.87858C5.8667 11.2797 7.00248 12.4154 8.40356 12.4154H9.58743C9.63423 12.4154 9.68069 12.414 9.72685 12.4115C8.39064 12.339 7.32942 11.2328 7.32942 9.87858Z" fill="#272265"/>
<path d="M7.36246 8.38731C7.18925 8.38731 7.04883 8.24693 7.04883 8.07368V7.50993C7.04883 7.33667 7.18925 7.19629 7.36246 7.19629C7.53568 7.19629 7.6761 7.33667 7.6761 7.50993V8.07368C7.6761 8.24689 7.53568 8.38731 7.36246 8.38731Z" fill="white"/>
<path d="M10.6305 8.38731C10.4573 8.38731 10.3169 8.24693 10.3169 8.07368V7.50993C10.3169 7.33667 10.4573 7.19629 10.6305 7.19629C10.8037 7.19629 10.9442 7.33667 10.9442 7.50993V8.07368C10.9442 8.24689 10.8037 8.38731 10.6305 8.38731Z" fill="white"/>
<path d="M8.99563 11.2091C8.55006 11.2091 8.13092 11.0354 7.81548 10.7199C7.693 10.5975 7.69304 10.3989 7.81548 10.2764C7.93797 10.154 8.13652 10.1539 8.25905 10.2765C8.45597 10.4734 8.71758 10.5819 8.99559 10.5819C9.27364 10.5819 9.53521 10.4734 9.73218 10.2765C9.8547 10.1539 10.0532 10.154 10.1757 10.2764C10.2982 10.3989 10.2982 10.5975 10.1757 10.7199C9.86035 11.0354 9.44125 11.2091 8.99563 11.2091Z" fill="white"/>
<path d="M8.99508 9.73978C8.92959 9.73983 8.86356 9.71938 8.80714 9.67706L8.35613 9.33883C8.09347 9.14174 8.04003 8.76776 8.23699 8.5051L8.74437 7.82857C8.84834 7.69002 9.04492 7.66196 9.18347 7.76584C9.32205 7.86976 9.35011 8.06639 9.24619 8.20493L8.75788 8.856L9.18347 9.1752C9.32201 9.27912 9.35011 9.4757 9.24619 9.61429C9.18464 9.69646 9.09042 9.73978 8.99508 9.73978Z" fill="white"/>
<path d="M10.063 1.28418C10.0619 1.28957 10.0612 1.29497 10.0598 1.30036L9.48622 3.5138C9.4671 3.58761 9.40053 3.63913 9.3243 3.63913H8.6662C8.58997 3.63913 8.52339 3.58761 8.50428 3.5138L7.9307 1.30036C7.92932 1.29501 7.92861 1.28957 7.92748 1.28418C6.04909 1.75986 4.65918 3.46136 4.65918 5.48762V5.94239H13.3313V5.48762C13.3313 3.46136 11.9414 1.75986 10.063 1.28418Z" fill="#272265"/>
<path d="M6.49772 5.90078V5.48783C6.49772 4.1294 7.12265 2.91722 8.10044 2.1223L7.89022 1.31106C7.88884 1.30567 7.88821 1.30032 7.88704 1.29492C6.02919 1.78466 4.65918 3.47616 4.65918 5.48783V5.90078H6.49772Z" fill="#272265"/>
<path d="M13.5114 7.08761H4.47789C4.15003 7.08761 3.88428 6.82186 3.88428 6.494C3.88428 6.16615 4.15007 5.90039 4.47789 5.90039H13.5113C13.8392 5.90039 14.1049 6.16619 14.1049 6.494C14.105 6.82186 13.8392 7.08761 13.5114 7.08761Z" fill="#272265"/>
<path d="M5.72394 6.494C5.72394 6.16615 5.9897 5.90039 6.31755 5.90039H4.47789C4.15003 5.90039 3.88428 6.16619 3.88428 6.494C3.88428 6.82186 4.15007 7.08761 4.47789 7.08761H6.31755C5.9897 7.08761 5.72394 6.82186 5.72394 6.494Z" fill="#272265"/>
<path d="M9.52637 3.52392L10.0999 1.31048C10.1677 1.04899 9.97026 0.793945 9.70016 0.793945H8.28963C8.01953 0.793945 7.8221 1.04899 7.88989 1.31048L8.46347 3.52392C8.48739 3.61617 8.57061 3.68057 8.66587 3.68057H9.32396C9.41923 3.68057 9.50244 3.61617 9.52637 3.52392Z" fill="#272265"/>
<path d="M9.19525 3.52392L8.62167 1.31048C8.55392 1.04899 8.75131 0.793945 9.02145 0.793945H8.28963C8.01953 0.793945 7.8221 1.04899 7.88989 1.31048L8.46347 3.52392C8.48739 3.61617 8.57061 3.68057 8.66587 3.68057H9.32396C9.33651 3.68057 9.3488 3.67932 9.36081 3.67719C9.28156 3.66297 9.21603 3.604 9.19525 3.52392Z" fill="#272265"/>
<path d="M9.8219 5.04427H8.17008C7.99687 5.04427 7.85645 4.90388 7.85645 4.73063C7.85645 4.55738 7.99687 4.41699 8.17008 4.41699H9.8219C9.99511 4.41699 10.1355 4.55738 10.1355 4.73063C10.1355 4.90388 9.99511 5.04427 9.8219 5.04427Z" fill="white"/>
<path d="M2.1177 11.5726C1.86432 11.5511 1.6224 11.4875 1.39893 11.3887V13.8261H2.1177V11.5726Z" fill="#272265"/>
<path d="M1.39893 16.3438V18.7682C1.61462 18.6432 1.85801 18.5608 2.1177 18.5336V16.3438H1.39893V16.3438Z" fill="#272265"/>
<path d="M1.39941 13.8262H3.21842V16.3446H1.39941V13.8262Z" fill="#272265"/>
<path d="M1.39941 13.8262H2.11819V16.3446H1.39941V13.8262Z" fill="#272265"/>
<path d="M3.57199 7.38011C3.50349 7.33529 3.41245 7.38534 3.41245 7.46718V9.19415C3.41245 9.3227 3.33985 9.44021 3.22485 9.49771L2.46125 9.87967C2.36566 9.92747 2.25312 9.92747 2.15753 9.87967L1.39393 9.49771C1.27897 9.44021 1.20633 9.3227 1.20633 9.19415V7.46722C1.20633 7.38522 1.11513 7.33537 1.0465 7.38024C0.409066 7.79746 -0.00961754 8.52133 0.000167925 9.34235C0.0153479 10.6137 1.07473 11.6431 2.34609 11.6233C3.60465 11.6037 4.61891 10.5774 4.61891 9.31412C4.61891 8.50465 4.2024 7.79248 3.57199 7.38011Z" fill="#272265"/>
<path d="M1.08497 9.34224C1.08175 9.07297 1.12491 8.81433 1.20646 8.57333V7.46715C1.20646 7.38515 1.11525 7.3353 1.04663 7.38017C0.409066 7.79735 -0.00961754 8.52122 0.000167925 9.34224C0.0153479 10.6136 1.07473 11.643 2.34609 11.6232C2.52047 11.6205 2.68987 11.5978 2.8528 11.5585C1.85355 11.3149 1.09777 10.4147 1.08497 9.34224Z" fill="#272265"/>
<path d="M2.30811 18.4834C1.28013 18.4834 0.446777 19.3168 0.446777 20.3447C0.446777 21.3727 1.28013 22.2061 2.30811 22.2061C3.33608 22.2061 4.16944 21.3727 4.16944 20.3447C4.16944 19.3168 3.33608 18.4834 2.30811 18.4834ZM2.30811 21.0401C1.92405 21.0401 1.61275 20.7287 1.61275 20.3447C1.61275 19.9607 1.92409 19.6494 2.30811 19.6494C2.69212 19.6494 3.00346 19.9607 3.00346 20.3447C3.00346 20.7287 2.69216 21.0401 2.30811 21.0401Z" fill="#272265"/>
<path d="M1.53957 20.3447C1.53957 19.5069 2.0932 18.7985 2.8545 18.5651C2.68171 18.5121 2.49825 18.4834 2.30811 18.4834C1.28013 18.4834 0.446777 19.3168 0.446777 20.3447C0.446777 21.3727 1.28013 22.2061 2.30811 22.2061C2.49825 22.2061 2.68171 22.1774 2.8545 22.1244C2.09316 21.8909 1.53957 21.1826 1.53957 20.3447Z" fill="#272265"/>
<path d="M15.0454 12.9424H16.1268V19.5918H15.0454V12.9424Z" fill="#272265"/>
<path d="M18.5136 11.0859L17.8659 11.7336H15.7622C15.3661 11.7336 15.0449 12.0548 15.0449 12.4509V12.9426H18.0561C18.2561 12.9426 18.447 12.8595 18.5832 12.7131L19.3483 11.8914C19.5611 11.6628 19.5548 11.3068 19.3339 11.0859C19.1074 10.8594 18.7401 10.8594 18.5136 11.0859Z" fill="#272265"/>
<path d="M16.8566 11.7324H15.7622C15.3661 11.7324 15.0449 12.0536 15.0449 12.4497V12.9414H16.1393V12.4497C16.1393 12.0536 16.4605 11.7324 16.8566 11.7324Z" fill="#272265"/>
<path d="M21.0908 6.20378H20.4229C20.3638 6.20378 20.3125 6.16401 20.2964 6.1071C20.2472 5.93263 20.1781 5.76657 20.0913 5.61164C20.0624 5.55999 20.0705 5.49563 20.1123 5.45377L20.5845 4.9816C20.6357 4.93038 20.6357 4.84737 20.5845 4.79614L20.0244 4.23598C19.9731 4.18476 19.8901 4.18476 19.8389 4.23598L19.3667 4.70815C19.3249 4.75001 19.2605 4.75808 19.2089 4.72919C19.0539 4.64242 18.8879 4.57325 18.7134 4.52407C18.6565 4.50801 18.6167 4.45674 18.6167 4.39761V3.72977C18.6167 3.65735 18.558 3.59863 18.4856 3.59863H17.6934C17.6209 3.59863 17.5622 3.65735 17.5622 3.72977V4.39765C17.5622 4.45678 17.5225 4.50805 17.4655 4.52411C17.2911 4.57329 17.125 4.64246 16.9701 4.72923C16.9184 4.75813 16.8541 4.75006 16.8122 4.7082L16.34 4.23603C16.2888 4.1848 16.2058 4.1848 16.1546 4.23603L15.5944 4.79618C15.5432 4.84741 15.5432 4.93042 15.5944 4.98164L16.0666 5.45381C16.1085 5.49567 16.1165 5.56003 16.0876 5.61168C16.0009 5.76661 15.9317 5.93267 15.8825 6.10714C15.8665 6.16405 15.8152 6.20382 15.7561 6.20382H15.0882C15.0157 6.20382 14.957 6.26254 14.957 6.33497V7.12717C14.957 7.1996 15.0157 7.25831 15.0882 7.25831H15.7561C15.8152 7.25831 15.8665 7.29808 15.8825 7.355C15.9317 7.52946 16.0009 7.69552 16.0876 7.85046C16.1165 7.9021 16.1085 7.96646 16.0666 8.00832L15.5944 8.48049C15.5432 8.53172 15.5432 8.61473 15.5944 8.66596L16.1546 9.22611C16.2058 9.27734 16.2888 9.27734 16.34 9.22611L16.8122 8.75394C16.8541 8.71208 16.9184 8.70401 16.9701 8.73291C17.125 8.81968 17.2911 8.88885 17.4655 8.93802C17.5225 8.95408 17.5622 9.00535 17.5622 9.06448V9.73236C17.5622 9.80479 17.6209 9.8635 17.6934 9.8635H18.4856C18.558 9.8635 18.6167 9.80479 18.6167 9.73236V9.06448C18.6167 9.00535 18.6565 8.95408 18.7134 8.93802C18.8879 8.88885 19.0539 8.81968 19.2089 8.73291C19.2605 8.70401 19.3249 8.71208 19.3667 8.75394L19.8389 9.22611C19.8901 9.27734 19.9731 9.27734 20.0244 9.22611L20.5845 8.66596C20.6357 8.61473 20.6357 8.53172 20.5845 8.48049L20.1123 8.00832C20.0705 7.96646 20.0624 7.9021 20.0913 7.85046C20.1781 7.69552 20.2472 7.52946 20.2964 7.355C20.3125 7.29808 20.3638 7.25831 20.4229 7.25831H21.0908C21.1632 7.25831 21.2219 7.1996 21.2219 7.12717V6.33497C21.2219 6.2625 21.1632 6.20378 21.0908 6.20378ZM18.0895 7.73437C17.5354 7.73437 17.0862 7.28516 17.0862 6.73103C17.0862 6.17689 17.5354 5.72768 18.0895 5.72768C18.6436 5.72768 19.0929 6.17689 19.0929 6.73103C19.0929 7.28516 18.6436 7.73437 18.0895 7.73437Z" fill="#272265"/>
<path d="M17.3067 7.79003C16.9823 7.54991 16.7715 7.16464 16.7715 6.73098C16.7715 6.29733 16.9823 5.91206 17.3067 5.67198C17.5653 5.08264 18.0328 4.60574 18.6157 4.33522V3.72977C18.6157 3.65735 18.557 3.59863 18.4846 3.59863H17.6924C17.62 3.59863 17.5612 3.65735 17.5612 3.72977V4.39765C17.5612 4.45678 17.5215 4.50805 17.4646 4.52411C17.2901 4.57329 17.124 4.64246 16.9691 4.72923C16.9175 4.75813 16.8531 4.75006 16.8112 4.7082L16.3391 4.23603C16.2878 4.1848 16.2048 4.1848 16.1536 4.23603L15.5934 4.79618C15.5422 4.84741 15.5422 4.93042 15.5934 4.98164L16.0656 5.45381C16.1075 5.49567 16.1155 5.56003 16.0867 5.61168C15.9999 5.76661 15.9307 5.93267 15.8815 6.10714C15.8655 6.16405 15.8142 6.20382 15.7551 6.20382H15.0872C15.0148 6.20382 14.9561 6.26254 14.9561 6.33497V7.12717C14.9561 7.1996 15.0148 7.25831 15.0872 7.25831H15.7551C15.8142 7.25831 15.8655 7.29808 15.8815 7.355C15.9307 7.52946 15.9999 7.69552 16.0867 7.85046C16.1155 7.9021 16.1075 7.96646 16.0656 8.00832L15.5934 8.48049C15.5422 8.53172 15.5422 8.61473 15.5934 8.66596L16.1536 9.22611C16.2048 9.27734 16.2878 9.27734 16.3391 9.22611L16.8112 8.75394C16.8531 8.71208 16.9175 8.70401 16.9691 8.73291C17.124 8.81968 17.2901 8.88885 17.4646 8.93802C17.5215 8.95408 17.5612 9.00535 17.5612 9.06448V9.73236C17.5612 9.80479 17.62 9.8635 17.6924 9.8635H18.4846C18.557 9.8635 18.6157 9.80479 18.6157 9.73236V9.12692C18.0328 8.85631 17.5653 8.37937 17.3067 7.79003Z" fill="#272265"/>
<path d="M18.088 8.04798C17.3618 8.04798 16.771 7.45718 16.771 6.731C16.771 6.00483 17.3618 5.41406 18.088 5.41406C18.8142 5.41406 19.405 6.00483 19.405 6.731C19.405 7.45718 18.8142 8.04798 18.088 8.04798ZM18.088 6.04134C17.7077 6.04134 17.3983 6.35071 17.3983 6.731C17.3983 7.11134 17.7076 7.42071 18.088 7.42071C18.4683 7.42071 18.7777 7.11134 18.7777 6.731C18.7777 6.35071 18.4683 6.04134 18.088 6.04134Z" fill="#272265"/>
</svg>
