<svg xmlns="http://www.w3.org/2000/svg" width="18" height="18" viewBox="0 0 18 18">
  <path id="Path_49" data-name="Path 49" d="M10.952,10.56l1.26-2.182a.319.319,0,0,0-.072-.406L10.808,6.926a4.573,4.573,0,0,0,.045-.613,4.823,4.823,0,0,0-.045-.622L12.14,4.644a.319.319,0,0,0,.072-.406l-1.26-2.182a.318.318,0,0,0-.387-.135L9,2.552A4.626,4.626,0,0,0,7.937,1.93L7.7.262A.328.328,0,0,0,7.388,0H4.868a.327.327,0,0,0-.315.271L4.319,1.939a4.824,4.824,0,0,0-1.062.622L1.691,1.93a.318.318,0,0,0-.387.135L.044,4.247a.319.319,0,0,0,.072.406L1.448,5.7a4.573,4.573,0,0,0-.045.613,4.823,4.823,0,0,0,.045.622L.116,7.981a.319.319,0,0,0-.072.406L1.3,10.569a.318.318,0,0,0,.387.135l1.566-.631a4.622,4.622,0,0,0,1.062.622l.234,1.668a.328.328,0,0,0,.315.262h2.52a.327.327,0,0,0,.315-.271l.234-1.668A4.828,4.828,0,0,0,9,10.064l1.566.631A.318.318,0,0,0,10.952,10.56ZM6.128,8.116a1.8,1.8,0,1,1,1.8-1.8A1.807,1.807,0,0,1,6.128,8.116Zm11.8,6.917-.864-.667a2.825,2.825,0,0,0,.036-.4,1.916,1.916,0,0,0-.036-.4l.855-.667a.206.206,0,0,0,.045-.262l-.81-1.4a.21.21,0,0,0-.252-.09l-1,.406a2.716,2.716,0,0,0-.684-.4L15.064,10.1a.195.195,0,0,0-.189-.18H13.264a.2.2,0,0,0-.2.171l-.153,1.064a3.227,3.227,0,0,0-.684.4l-1-.406a.207.207,0,0,0-.252.09l-.81,1.4a.206.206,0,0,0,.045.261l.855.667a2.843,2.843,0,0,0,0,.794l-.855.667a.207.207,0,0,0-.045.262l.81,1.4a.21.21,0,0,0,.252.09l1-.406a2.714,2.714,0,0,0,.684.4l.153,1.064a.2.2,0,0,0,.2.171h1.611a.2.2,0,0,0,.2-.171l.153-1.064a2.952,2.952,0,0,0,.675-.4l1.008.406a.207.207,0,0,0,.252-.09l.81-1.4A.2.2,0,0,0,17.927,15.033Zm-3.861.144a1.217,1.217,0,1,1,.86-.356A1.215,1.215,0,0,1,14.066,15.177Z" fill="#606e7d"/>
</svg>
