<svg width="23" height="21" viewBox="0 0 23 21" fill="none" xmlns="http://www.w3.org/2000/svg">
<path d="M21.8754 7.54166H1.22812C1.00554 7.54166 0.91676 7.2303 1.09474 7.14111L11.1068 1.13369C11.247 1.04632 11.4089 1 11.5741 1C11.7393 1 11.9011 1.04632 12.0413 1.13369L22.0534 7.14111C22.1872 7.2303 22.098 7.54166 21.8754 7.54166Z" fill="#5F9FE6" stroke="black" stroke-width="0.5" stroke-linecap="round" stroke-linejoin="round"/>
<path d="M20.4498 7.54199H2.65213V8.43187C2.64855 8.49127 2.65761 8.55074 2.67871 8.60637C2.69982 8.662 2.73249 8.71252 2.77456 8.75459C2.81663 8.79666 2.86715 8.82933 2.92278 8.85044C2.97841 8.87154 3.03788 8.8806 3.09728 8.87702H20.0067C20.0659 8.8803 20.1251 8.87102 20.1805 8.84978C20.2359 8.82854 20.2862 8.79583 20.328 8.75379C20.3699 8.71175 20.4023 8.66133 20.4233 8.60585C20.4443 8.55037 20.4533 8.49108 20.4498 8.43187V7.54199Z" fill="white" stroke="black" stroke-width="0.5" stroke-linecap="round" stroke-linejoin="round"/>
<path d="M20.0067 17.3308H3.09728C3.03788 17.3273 2.97841 17.3363 2.92278 17.3574C2.86715 17.3785 2.81663 17.4112 2.77456 17.4533C2.73249 17.4953 2.69982 17.5459 2.67871 17.6015C2.65761 17.6571 2.64855 17.7166 2.65213 17.776V18.6659H20.4498V17.776C20.4533 17.7168 20.4443 17.6575 20.4233 17.602C20.4023 17.5465 20.3699 17.4961 20.328 17.4541C20.2862 17.412 20.2359 17.3793 20.1805 17.3581C20.1251 17.3368 20.0659 17.3276 20.0067 17.3308Z" fill="white" stroke="black" stroke-width="0.5" stroke-linecap="round" stroke-linejoin="round"/>
<path d="M21.3418 18.6658H1.76231C1.70292 18.6622 1.64345 18.6713 1.58782 18.6924C1.53219 18.7135 1.48167 18.7462 1.4396 18.7882C1.39752 18.8303 1.36486 18.8808 1.34375 18.9365C1.32265 18.9921 1.31359 19.0516 1.31717 19.1109V20.4456H21.7865V19.1109C21.7901 19.0516 21.781 18.9922 21.7599 18.9366C21.7389 18.881 21.7062 18.8305 21.6642 18.7884C21.6222 18.7463 21.5717 18.7136 21.5161 18.6925C21.4606 18.6714 21.4011 18.6623 21.3418 18.6658Z" fill="#5F9FE6" stroke="black" stroke-width="0.5"/>
<path d="M13.3308 9.76683V8.87695H9.7713V9.76683C9.76771 9.82623 9.77678 9.8857 9.79788 9.94133C9.81898 9.99696 9.85165 10.0475 9.89372 10.0896C9.93579 10.1316 9.98631 10.1643 10.0419 10.1854C10.0976 10.2065 10.157 10.2156 10.2164 10.212V15.996C10.157 15.9924 10.0975 16.0015 10.0418 16.0226C9.98618 16.0438 9.93564 16.0765 9.89356 16.1186C9.85148 16.1607 9.81882 16.2113 9.79775 16.2669C9.77667 16.3226 9.76765 16.3821 9.7713 16.4416V17.3314H13.3308V16.4416C13.3345 16.3822 13.3255 16.3227 13.3044 16.267C13.2833 16.2114 13.2507 16.1608 13.2087 16.1187C13.1667 16.0766 13.1162 16.0439 13.0606 16.0228C13.0049 16.0016 12.9455 15.9925 12.8861 15.996V10.212C12.9454 10.2155 13.0049 10.2064 13.0605 10.1853C13.116 10.1641 13.1665 10.1315 13.2085 10.0894C13.2506 10.0473 13.2832 9.99683 13.3043 9.94123C13.3253 9.88563 13.3344 9.82619 13.3308 9.76683Z" fill="#5F9FE6" stroke="black" stroke-width="0.5" stroke-linecap="round" stroke-linejoin="round"/>
<path d="M7.54664 9.76683V8.87695H3.98712V9.76683C3.98353 9.82623 3.9926 9.8857 4.0137 9.94133C4.0348 9.99696 4.06747 10.0475 4.10954 10.0896C4.15162 10.1316 4.20213 10.1643 4.25777 10.1854C4.3134 10.2065 4.37287 10.2156 4.43226 10.212V15.996C4.37283 15.9924 4.31332 16.0015 4.25766 16.0226C4.202 16.0438 4.15146 16.0765 4.10938 16.1186C4.0673 16.1607 4.03465 16.2113 4.01357 16.2669C3.99249 16.3226 3.98347 16.3821 3.98712 16.4416V17.3314H7.54664V16.4416C7.55028 16.3822 7.54127 16.3227 7.52022 16.267C7.49917 16.2114 7.46655 16.1608 7.42451 16.1187C7.38248 16.0766 7.33199 16.0439 7.27638 16.0228C7.22077 16.0016 7.1613 15.9925 7.10191 15.996V10.212C7.16127 10.2155 7.2207 10.2064 7.27628 10.1853C7.33186 10.1641 7.38233 10.1315 7.42435 10.0894C7.46638 10.0473 7.49901 9.99683 7.52009 9.94123C7.54117 9.88563 7.55022 9.82619 7.54664 9.76683Z" fill="#5F9FE6" stroke="black" stroke-width="0.5" stroke-linecap="round" stroke-linejoin="round"/>
<path d="M19.116 9.76683V8.87695H15.5565V9.76683C15.5529 9.82623 15.5619 9.8857 15.583 9.94133C15.6041 9.99696 15.6368 10.0475 15.6789 10.0896C15.721 10.1316 15.7715 10.1643 15.8271 10.1854C15.8827 10.2065 15.9422 10.2156 16.0016 10.212V15.996C15.9422 15.9924 15.8827 16.0015 15.827 16.0226C15.7713 16.0438 15.7208 16.0765 15.6787 16.1186C15.6366 16.1607 15.604 16.2113 15.5829 16.2669C15.5618 16.3226 15.5528 16.3821 15.5565 16.4416V17.3314H19.116V16.4416C19.1196 16.3822 19.1106 16.3227 19.0896 16.267C19.0685 16.2114 19.0359 16.1608 18.9938 16.1187C18.9518 16.0766 18.9013 16.0439 18.8457 16.0228C18.7901 16.0016 18.7306 15.9925 18.6712 15.996V10.212C18.7306 10.2155 18.79 10.2064 18.8456 10.1853C18.9012 10.1641 18.9517 10.1315 18.9937 10.0894C19.0357 10.0473 19.0683 9.99683 19.0894 9.94123C19.1105 9.88563 19.1196 9.82619 19.116 9.76683Z" fill="#5F9FE6" stroke="black" stroke-width="0.5" stroke-linecap="round" stroke-linejoin="round"/>
</svg>
