<svg width="18" height="21" viewBox="0 0 18 21" fill="none" xmlns="http://www.w3.org/2000/svg">
<path fill-rule="evenodd" clip-rule="evenodd" d="M12.6692 9.18789C12.7291 9.2476 12.7766 9.31854 12.809 9.39664C12.8414 9.47474 12.8581 9.55847 12.8581 9.64303C12.8581 9.72759 12.8414 9.81131 12.809 9.88942C12.7766 9.96752 12.7291 10.0385 12.6692 10.0982L8.81205 13.9553C8.75234 14.0152 8.6814 14.0627 8.6033 14.0951C8.52519 14.1275 8.44147 14.1442 8.35691 14.1442C8.27235 14.1442 8.18862 14.1275 8.11052 14.0951C8.03242 14.0627 7.96148 14.0152 7.90177 13.9553L5.97319 12.0267C5.91342 11.967 5.86601 11.896 5.83366 11.8179C5.80132 11.7398 5.78467 11.6561 5.78467 11.5716C5.78467 11.4871 5.80132 11.4034 5.83366 11.3253C5.86601 11.2472 5.91342 11.1762 5.97319 11.1165C6.09391 10.9957 6.25763 10.9279 6.42834 10.9279C6.51287 10.9279 6.59657 10.9446 6.67466 10.9769C6.75275 11.0093 6.82371 11.0567 6.88348 11.1165L8.35691 12.5912L11.7589 9.18789C11.8186 9.12802 11.8896 9.08052 11.9677 9.04811C12.0458 9.0157 12.1295 8.99902 12.2141 8.99902C12.2986 8.99902 12.3823 9.0157 12.4604 9.04811C12.5385 9.08052 12.6095 9.12802 12.6692 9.18789Z" fill="white"/>
<path d="M3.85714 1.92871H2.57143C1.88944 1.92871 1.23539 2.19963 0.753154 2.68186C0.270918 3.1641 0 3.81815 0 4.50014V18.0001C0 18.6821 0.270918 19.3362 0.753154 19.8184C1.23539 20.3006 1.88944 20.5716 2.57143 20.5716H15.4286C16.1106 20.5716 16.7646 20.3006 17.2468 19.8184C17.7291 19.3362 18 18.6821 18 18.0001V4.50014C18 3.81815 17.7291 3.1641 17.2468 2.68186C16.7646 2.19963 16.1106 1.92871 15.4286 1.92871H14.1429V3.21443H15.4286C15.7696 3.21443 16.0966 3.34988 16.3377 3.591C16.5788 3.83212 16.7143 4.15915 16.7143 4.50014V18.0001C16.7143 18.3411 16.5788 18.6682 16.3377 18.9093C16.0966 19.1504 15.7696 19.2859 15.4286 19.2859H2.57143C2.23044 19.2859 1.90341 19.1504 1.66229 18.9093C1.42117 18.6682 1.28571 18.3411 1.28571 18.0001V4.50014C1.28571 4.15915 1.42117 3.83212 1.66229 3.591C1.90341 3.34988 2.23044 3.21443 2.57143 3.21443H3.85714V1.92871Z" fill="white"/>
<path d="M10.9288 1.28571C11.0993 1.28571 11.2628 1.35344 11.3833 1.474C11.5039 1.59456 11.5716 1.75808 11.5716 1.92857V3.21429C11.5716 3.38478 11.5039 3.5483 11.3833 3.66885C11.2628 3.78941 11.0993 3.85714 10.9288 3.85714H7.07164C6.90114 3.85714 6.73763 3.78941 6.61707 3.66885C6.49651 3.5483 6.42878 3.38478 6.42878 3.21429V1.92857C6.42878 1.75808 6.49651 1.59456 6.61707 1.474C6.73763 1.35344 6.90114 1.28571 7.07164 1.28571H10.9288ZM7.07164 0C6.56015 0 6.06961 0.203188 5.70793 0.564865C5.34625 0.926543 5.14307 1.41708 5.14307 1.92857V3.21429C5.14307 3.72577 5.34625 4.21631 5.70793 4.57799C6.06961 4.93967 6.56015 5.14286 7.07164 5.14286H10.9288C11.4403 5.14286 11.9308 4.93967 12.2925 4.57799C12.6542 4.21631 12.8574 3.72577 12.8574 3.21429V1.92857C12.8574 1.41708 12.6542 0.926543 12.2925 0.564865C11.9308 0.203188 11.4403 0 10.9288 0L7.07164 0Z" fill="white"/>
</svg>
