<svg width="21" height="12" viewBox="0 0 21 12" fill="none" xmlns="http://www.w3.org/2000/svg">
<path fill-rule="evenodd" clip-rule="evenodd" d="M0.426781 6.66995C0.313592 6.55676 0.250002 6.40324 0.250003 6.24316C0.250002 6.08309 0.313592 5.92957 0.426781 5.81638L5.54815 0.695009C5.66134 0.58182 5.81486 0.518231 5.97494 0.518231C6.13501 0.518231 6.28853 0.58182 6.40172 0.69501C6.51491 0.808199 6.5785 0.961718 6.5785 1.12179C6.5785 1.28187 6.51491 1.43538 6.40172 1.54857L2.31059 5.6397L19.6319 5.63884C19.7113 5.63884 19.7899 5.65447 19.8632 5.68484C19.9365 5.71521 20.0031 5.75973 20.0593 5.81584C20.1154 5.87196 20.1599 5.93858 20.1903 6.0119C20.2206 6.08522 20.2363 6.1638 20.2363 6.24316C20.2363 6.32252 20.2206 6.40111 20.1903 6.47443C20.1599 6.54775 20.1154 6.61437 20.0593 6.67048C20.0031 6.7266 19.9365 6.77111 19.8632 6.80148C19.7899 6.83185 19.7113 6.84749 19.6319 6.84749L2.31059 6.84663L6.40172 10.9378C6.51491 11.0509 6.5785 11.2045 6.5785 11.3645C6.5785 11.5246 6.51491 11.6781 6.40172 11.7913C6.28853 11.9045 6.13501 11.9681 5.97494 11.9681C5.81486 11.9681 5.66134 11.9045 5.54815 11.7913L0.426781 6.66995Z" fill="white"/>
</svg>
