<svg width="18" height="18" viewBox="0 0 18 18" fill="none" xmlns="http://www.w3.org/2000/svg">
<path fill-rule="evenodd" clip-rule="evenodd" d="M5 0C3.34315 0 2 1.34315 2 3C2 3.39025 2.07451 3.76309 2.21009 4.10508C0.936468 4.45179 0 5.61653 0 7C0 8.06226 0.552095 8.99557 1.38499 9.52864C1.13986 9.96336 1 10.4653 1 11C1 11.5347 1.13986 12.0366 1.38499 12.4714C0.552095 13.0044 0 13.9377 0 15C0 16.6569 1.34315 18 3 18H7C8.06658 18 9.00317 17.4434 9.53513 16.6048C10.4338 17.4688 11.6549 18 13 18C15.7614 18 18 15.7614 18 13C18 10.2386 15.7614 8 13 8C11.9366 8 10.9507 8.33197 10.1404 8.89793C9.98221 8.73688 9.80599 8.5936 9.61501 8.47137C9.86014 8.03664 10 7.53465 10 7C10 6.60975 9.92548 6.23691 9.78991 5.89492C11.0635 5.54821 12 4.38347 12 3C12 1.34315 10.6569 0 9 0H5ZM8.75953 10.3495C8.57613 10.1356 8.3039 10 8 10H4C3.44772 10 3 10.4477 3 11C3 11.5523 3.44772 12 4 12H8C8.03411 12 8.06782 11.9983 8.10105 11.995C8.22216 11.4014 8.44843 10.8462 8.75953 10.3495ZM8 7C8 6.44772 7.55228 6 7 6H3C2.44772 6 2 6.44772 2 7C2 7.55228 2.44772 8 3 8H7C7.55228 8 8 7.55228 8 7ZM5 4H9C9.55228 4 10 3.55228 10 3C10 2.44772 9.55228 2 9 2H5C4.44772 2 4 2.44772 4 3C4 3.55228 4.44772 4 5 4ZM8 15C8 14.4477 7.55228 14 7 14H3C2.44772 14 2 14.4477 2 15C2 15.5523 2.44772 16 3 16H7C7.55228 16 8 15.5523 8 15ZM10 13C10 11.3431 11.3431 10 13 10C14.6569 10 16 11.3431 16 13C16 14.6569 14.6569 16 13 16C11.3431 16 10 14.6569 10 13Z" fill="#606E7D"/>
</svg>
