<svg width="20" height="20" viewBox="0 0 20 20" fill="none" xmlns="http://www.w3.org/2000/svg">
<path fill-rule="evenodd" clip-rule="evenodd" d="M8.33323 2.91699C8.33323 2.22664 8.89287 1.66699 9.58323 1.66699H10.4166C11.1069 1.66699 11.6666 2.22664 11.6666 2.91699V3.2207C11.6666 3.41082 11.7957 3.5755 11.9773 3.63182C12.3698 3.75355 12.7467 3.91056 13.1044 4.09915C13.2726 4.18782 13.4804 4.1627 13.6149 4.02824L13.83 3.81314C14.3182 3.32499 15.1096 3.32499 15.5978 3.81314L16.187 4.4024C16.6752 4.89055 16.6752 5.68201 16.187 6.17016L15.9719 6.38526C15.8375 6.51972 15.8123 6.72753 15.901 6.89574C16.0896 7.25347 16.2466 7.63044 16.3684 8.02293C16.4247 8.20452 16.5894 8.33366 16.7795 8.33366H17.0832C17.7735 8.33366 18.3332 8.8933 18.3332 9.58366V10.417C18.3332 11.1073 17.7735 11.667 17.0832 11.667H16.7795C16.5894 11.667 16.4247 11.7961 16.3684 11.9777C16.2466 12.3702 16.0896 12.7472 15.901 13.1049C15.8123 13.2731 15.8375 13.4809 15.9719 13.6154L16.187 13.8305C16.6752 14.3186 16.6752 15.1101 16.187 15.5983L15.5978 16.1875C15.1096 16.6757 14.3182 16.6757 13.83 16.1875L13.6149 15.9724C13.4804 15.838 13.2726 15.8128 13.1044 15.9015C12.7467 16.0901 12.3698 16.2471 11.9773 16.3688C11.7957 16.4252 11.6666 16.5898 11.6666 16.7799V17.0837C11.6666 17.774 11.1069 18.3337 10.4166 18.3337H9.58323C8.89287 18.3337 8.33323 17.774 8.33323 17.0837V16.78C8.33323 16.5899 8.20408 16.4252 8.0225 16.3689C7.62999 16.2471 7.253 16.0901 6.89525 15.9015C6.72704 15.8128 6.51923 15.838 6.38477 15.9724L6.16968 16.1875C5.68152 16.6757 4.89006 16.6757 4.40191 16.1875L3.81265 15.5983C3.3245 15.1101 3.3245 14.3186 3.81265 13.8305L4.02775 13.6154C4.16221 13.4809 4.18734 13.2731 4.09866 13.1049C3.91007 12.7472 3.75305 12.3702 3.63132 11.9777C3.575 11.7961 3.41031 11.667 3.2202 11.667H2.9165C2.22615 11.667 1.6665 11.1073 1.6665 10.417V9.58366C1.6665 8.8933 2.22615 8.33366 2.9165 8.33366H3.2202C3.41031 8.33366 3.575 8.20452 3.63132 8.02293C3.75305 7.63044 3.91007 7.25347 4.09866 6.89574C4.18734 6.72753 4.16221 6.51972 4.02775 6.38526L3.81265 6.17016C3.3245 5.68201 3.3245 4.89055 3.81265 4.4024L4.40191 3.81314C4.89006 3.32499 5.68152 3.32499 6.16968 3.81314L6.38478 4.02824C6.51923 4.1627 6.72704 4.18782 6.89525 4.09915C7.253 3.91055 7.62999 3.75352 8.0225 3.63179C8.20408 3.57547 8.33323 3.41079 8.33323 3.22067V2.91699Z" fill="#272265"/>
<path d="M12.5 10C12.5 11.3807 11.3807 12.5 10 12.5C8.61929 12.5 7.5 11.3807 7.5 10C7.5 8.61929 8.61929 7.5 10 7.5C11.3807 7.5 12.5 8.61929 12.5 10Z" fill="white"/>
</svg>
