<svg width="20" height="21" viewBox="0 0 20 21" fill="none" xmlns="http://www.w3.org/2000/svg">
<path d="M0 15.8608V7.11111C0 4.62199 0 3.37743 0.484416 2.42671C0.910519 1.59043 1.59043 0.910519 2.42671 0.484416C3.37743 0 4.62199 0 7.11111 0H12.8889C15.378 0 16.6226 0 17.5733 0.484416C18.4096 0.910519 19.0895 1.59043 19.5156 2.42671C20 3.37743 20 4.62199 20 7.11111V8.44444C20 10.9336 20 12.1781 19.5156 13.1288C19.0895 13.9651 18.4096 14.645 17.5733 15.0711C16.6226 15.5556 15.378 15.5556 12.8889 15.5556H8.17685C7.61992 15.5556 7.34146 15.5556 7.08017 15.6198C6.84853 15.6767 6.62757 15.7706 6.42577 15.8977C6.19813 16.0412 6.00479 16.2416 5.61809 16.6424L4.58574 17.7124C3.15233 19.198 2.43563 19.9409 1.81824 19.9972C1.28275 20.0461 0.756565 19.8337 0.405155 19.4267C0 18.9574 0 17.9252 0 15.8608Z" fill="#272265"/>
<path d="M5.55545 8.88921C6.1691 8.88921 6.66656 8.39175 6.66656 7.7781C6.66656 7.16445 6.1691 6.66699 5.55545 6.66699C4.9418 6.66699 4.44434 7.16445 4.44434 7.7781C4.44434 8.39175 4.9418 8.88921 5.55545 8.88921Z" fill="white"/>
<path d="M11.111 7.7781C11.111 8.39175 10.6135 8.88921 9.99989 8.88921C9.38624 8.88921 8.88878 8.39175 8.88878 7.7781C8.88878 7.16445 9.38624 6.66699 9.99989 6.66699C10.6135 6.66699 11.111 7.16445 11.111 7.7781Z" fill="white"/>
<path d="M15.5554 7.7781C15.5554 8.39175 15.058 8.88921 14.4443 8.88921C13.8307 8.88921 13.3332 8.39175 13.3332 7.7781C13.3332 7.16445 13.8307 6.66699 14.4443 6.66699C15.058 6.66699 15.5554 7.16445 15.5554 7.7781Z" fill="white"/>
</svg>
