<svg width="15" height="10" viewBox="0 0 15 10" fill="none" xmlns="http://www.w3.org/2000/svg">
<path fill-rule="evenodd" clip-rule="evenodd" d="M15 5C15 4.85268 14.9436 4.71139 14.8431 4.60722C14.7426 4.50305 14.6064 4.44452 14.4643 4.44452L1.82977 4.44452L5.20134 0.949458C5.30193 0.845155 5.35844 0.703687 5.35844 0.55618C5.35844 0.408672 5.30193 0.267206 5.20134 0.162902C5.10075 0.0585983 4.96433 7.36677e-07 4.82208 7.42895e-07C4.67983 7.49113e-07 4.5434 0.0585983 4.44282 0.162902L0.157376 4.60672C0.10749 4.65832 0.0679108 4.71962 0.0409056 4.7871C0.0139005 4.85459 -2.21751e-07 4.92694 -2.18557e-07 5C-2.15363e-07 5.07307 0.0139005 5.14541 0.0409057 5.2129C0.0679108 5.28038 0.10749 5.34168 0.157376 5.39328L4.44282 9.8371C4.49262 9.88874 4.55175 9.92971 4.61682 9.95766C4.6819 9.98561 4.75164 10 4.82208 10C4.96433 10 5.10075 9.9414 5.20134 9.8371C5.30193 9.73279 5.35844 9.59133 5.35844 9.44382C5.35844 9.29631 5.30193 9.15485 5.20134 9.05054L1.82977 5.55548L14.4643 5.55548C14.6064 5.55548 14.7426 5.49695 14.8431 5.39278C14.9436 5.28861 15 5.14732 15 5Z" fill="#606E7D"/>
</svg>
