<svg width="28" height="28" viewBox="0 0 28 28" fill="none" xmlns="http://www.w3.org/2000/svg">
<rect width="28" height="28" rx="14" fill="#F8F8F8"/>
<path d="M13.999 10.5V7H11.499C11.1012 7 10.7196 7.15804 10.4383 7.43934C10.157 7.72064 9.999 8.10218 9.999 8.5V17.5C9.999 17.8978 10.157 18.2794 10.4383 18.5607C10.7196 18.842 11.1012 19 11.499 19H17.5C17.8978 19 18.2794 18.842 18.5607 18.5607C18.842 18.2794 19 17.8978 19 17.5V12H15.498C15.1002 12 14.7186 11.842 14.4373 11.5607C14.156 11.2794 13.998 10.8978 13.998 10.5H13.999ZM14.999 10.5V7.25L18.749 11H15.499C15.3664 11 15.2392 10.9473 15.1454 10.8536C15.0517 10.7598 14.999 10.6326 14.999 10.5ZM8 10C8 9.73478 8.10536 9.48043 8.29289 9.29289C8.48043 9.10536 8.73478 9 9 9V17.5C9 18.163 9.26339 18.7989 9.73223 19.2678C10.2011 19.7366 10.837 20 11.5 20H17C17 20.2652 16.8946 20.5196 16.7071 20.7071C16.5196 20.8946 16.2652 21 16 21H11.556C10.6129 21 9.70841 20.6254 9.04153 19.9585C8.37465 19.2916 8 18.3871 8 17.444V10Z" fill="#272265"/>
</svg>
