<svg width="20" height="20" viewBox="0 0 20 20" fill="none" xmlns="http://www.w3.org/2000/svg">
<path d="M10 1.66699C5.85786 1.66699 2.5 5.02486 2.5 9.16699C2.5 11.689 4.00814 13.8268 5.74588 15.3328L8.61373 17.8183C9.40931 18.5078 10.5907 18.5078 11.3863 17.8183L14.2541 15.3328C15.9919 13.8268 17.5 11.689 17.5 9.16699C17.5 5.02486 14.1421 1.66699 10 1.66699Z" fill="#272265"/>
<path d="M10.8333 7.50033C10.8333 7.04009 10.4602 6.66699 10 6.66699C9.53976 6.66699 9.16667 7.04009 9.16667 7.50033V8.33366H8.33333C7.8731 8.33366 7.5 8.70676 7.5 9.16699C7.5 9.62723 7.8731 10.0003 8.33333 10.0003H9.16667V10.8337C9.16667 11.2939 9.53976 11.667 10 11.667C10.4602 11.667 10.8333 11.2939 10.8333 10.8337V10.0003H11.6667C12.1269 10.0003 12.5 9.62723 12.5 9.16699C12.5 8.70676 12.1269 8.33366 11.6667 8.33366H10.8333V7.50033Z" fill="white"/>
</svg>
