<svg width="32" height="32" viewBox="0 0 32 32" fill="none" xmlns="http://www.w3.org/2000/svg">
<rect width="32" height="32" rx="16" fill="white"/>
<path d="M10.3355 10.3355C10.5503 10.1207 10.8417 10 11.1455 10C11.4493 10 11.7407 10.1207 11.9555 10.3355L16.0069 14.3868L20.0583 10.3355C20.2744 10.1268 20.5638 10.0113 20.8642 10.0139C21.1646 10.0165 21.452 10.137 21.6644 10.3494C21.8768 10.5618 21.9973 10.8492 22 11.1496C22.0026 11.45 21.8871 11.7395 21.6784 11.9555L17.627 16.0069L21.6784 20.0583C21.8871 20.2744 22.0026 20.5638 22 20.8642C21.9973 21.1646 21.8768 21.452 21.6644 21.6644C21.452 21.8768 21.1646 21.9973 20.8642 22C20.5638 22.0026 20.2744 21.8871 20.0583 21.6784L16.0069 17.627L11.9555 21.6784C11.7395 21.8871 11.45 22.0026 11.1496 22C10.8492 21.9973 10.5618 21.8768 10.3494 21.6644C10.137 21.452 10.0165 21.1646 10.0139 20.8642C10.0113 20.5638 10.1268 20.2744 10.3355 20.0583L14.3868 16.0069L10.3355 11.9555C10.1207 11.7407 10 11.4493 10 11.1455C10 10.8417 10.1207 10.5503 10.3355 10.3355Z" fill="black"/>
</svg>
