<svg width="15" height="15" viewBox="0 0 15 15" fill="none" xmlns="http://www.w3.org/2000/svg">
<path fill-rule="evenodd" clip-rule="evenodd" d="M4.16667 0C2.78595 0 1.66667 1.11929 1.66667 2.5C1.66667 2.82521 1.72876 3.13591 1.84174 3.4209C0.78039 3.70982 0 4.68044 0 5.83333C0 6.71855 0.460079 7.4963 1.15416 7.94053C0.949885 8.3028 0.833333 8.72112 0.833333 9.16667C0.833333 9.61221 0.949885 10.0305 1.15416 10.3928C0.460079 10.837 0 11.6148 0 12.5C0 13.8807 1.11929 15 2.5 15H5.83333C6.72215 15 7.50264 14.5362 7.94594 13.8373C7.1574 13.0792 6.66667 12.0136 6.66667 10.8333C6.66667 10.5465 6.69566 10.2664 6.75087 9.9958C6.72318 9.99858 6.69509 10 6.66667 10H3.33333C2.8731 10 2.5 9.6269 2.5 9.16667C2.5 8.70643 2.8731 8.33333 3.33333 8.33333H6.66667C6.91991 8.33333 7.14678 8.4463 7.29961 8.62459C7.59808 8.14808 7.99026 7.73626 8.45033 7.41494C8.31851 7.28073 8.17166 7.16133 8.01251 7.05947C8.21678 6.6972 8.33333 6.27888 8.33333 5.83333C8.33333 5.50813 8.27124 5.19742 8.15826 4.91243C9.21961 4.62351 10 3.65289 10 2.5C10 1.11929 8.88071 0 7.5 0H4.16667ZM6.66667 5.83333C6.66667 5.3731 6.29357 5 5.83333 5H2.5C2.03976 5 1.66667 5.3731 1.66667 5.83333C1.66667 6.29357 2.03976 6.66667 2.5 6.66667H5.83333C6.29357 6.66667 6.66667 6.29357 6.66667 5.83333ZM4.16667 3.33333H7.5C7.96024 3.33333 8.33333 2.96024 8.33333 2.5C8.33333 2.03976 7.96024 1.66667 7.5 1.66667H4.16667C3.70643 1.66667 3.33333 2.03976 3.33333 2.5C3.33333 2.96024 3.70643 3.33333 4.16667 3.33333ZM6.66667 12.5C6.66667 12.0398 6.29357 11.6667 5.83333 11.6667H2.5C2.03976 11.6667 1.66667 12.0398 1.66667 12.5C1.66667 12.9602 2.03976 13.3333 2.5 13.3333H5.83333C6.29357 13.3333 6.66667 12.9602 6.66667 12.5ZM8.33366 10.8333C8.33366 9.45258 9.45295 8.33329 10.8337 8.33329C12.2144 8.33329 13.3337 9.45258 13.3337 10.8333C13.3337 12.214 12.2144 13.3333 10.8337 13.3333C9.45295 13.3333 8.33366 12.214 8.33366 10.8333ZM10.8337 6.66663C8.53247 6.66663 6.66699 8.53211 6.66699 10.8333C6.66699 13.1345 8.53247 15 10.8337 15C13.1348 15 15.0003 13.1345 15.0003 10.8333C15.0003 8.53211 13.1348 6.66663 10.8337 6.66663Z" fill="#B5BEC8"/>
</svg>
