<svg width="13" height="13" viewBox="0 0 13 13" fill="none" xmlns="http://www.w3.org/2000/svg">
<path d="M11.5556 0H1.44444C0.647833 0 0 0.647833 0 1.44444V11.5556C0 12.3522 0.647833 13 1.44444 13H7.22222C7.31708 13.0001 7.41103 12.9815 7.49866 12.9452C7.5863 12.9089 7.66588 12.8556 7.73283 12.7884L12.7884 7.73283C12.8478 7.67126 12.8957 7.59961 12.9299 7.52122C12.9401 7.49955 12.9458 7.47717 12.9538 7.45405C12.9743 7.39362 12.9867 7.33071 12.9906 7.267C12.9921 7.25183 13 7.23739 13 7.22222V1.44444C13 0.647833 12.3522 0 11.5556 0ZM1.44444 1.44444H11.5556V6.5H7.22222C7.03068 6.5 6.84698 6.57609 6.71153 6.71153C6.57609 6.84698 6.5 7.03068 6.5 7.22222V11.5556H1.44444V1.44444ZM7.94444 10.5343V7.94444H10.5343L7.94444 10.5343Z" fill="#B5BEC8"/>
</svg>
