<svg width="63" height="55" viewBox="0 0 63 55" fill="none" xmlns="http://www.w3.org/2000/svg">
<g filter="url(#filter0_d_726_8045)">
<path fill-rule="evenodd" clip-rule="evenodd" d="M36.1768 34.0784C39.9455 34.0784 43.0006 30.9431 43.0006 27.0754C43.0006 23.2077 39.9455 20.0724 36.1768 20.0724C34.4879 20.0724 32.9423 20.7021 31.7508 21.7452C30.5592 20.7021 29.0136 20.0724 27.3247 20.0724C23.5561 20.0724 20.501 23.2078 20.501 27.0754C20.501 30.9431 23.5561 34.0785 27.3247 34.0785C29.0137 34.0785 30.5593 33.4488 31.7508 32.4057C32.9424 33.4488 34.4879 34.0784 36.1768 34.0784Z" fill="#ED0006"/>
<path fill-rule="evenodd" clip-rule="evenodd" d="M31.751 32.4056C33.2183 31.1212 34.1487 29.2098 34.1487 27.0754C34.1487 24.941 33.2183 23.0297 31.751 21.7452C32.9425 20.7021 34.4881 20.0724 36.1771 20.0724C39.9457 20.0724 43.0008 23.2077 43.0008 27.0754C43.0008 30.9431 39.9457 34.0784 36.1771 34.0784C34.4881 34.0784 32.9425 33.4487 31.751 32.4056Z" fill="#F9A000"/>
<path fill-rule="evenodd" clip-rule="evenodd" d="M31.7502 32.4057C33.2175 31.1212 34.1479 29.2098 34.1479 27.0755C34.1479 24.9411 33.2175 23.0297 31.7502 21.7452C30.2829 23.0297 29.3525 24.9411 29.3525 27.0755C29.3525 29.2098 30.2829 31.1212 31.7502 32.4057Z" fill="#FF5E00"/>
</g>
<defs>
<filter id="filter0_d_726_8045" x="-6" y="-5" width="75" height="64.3478" filterUnits="userSpaceOnUse" color-interpolation-filters="sRGB">
<feFlood flood-opacity="0" result="BackgroundImageFix"/>
<feColorMatrix in="SourceAlpha" type="matrix" values="0 0 0 0 0 0 0 0 0 0 0 0 0 0 0 0 0 0 127 0" result="hardAlpha"/>
<feOffset/>
<feGaussianBlur stdDeviation="10"/>
<feComposite in2="hardAlpha" operator="out"/>
<feColorMatrix type="matrix" values="0 0 0 0 0 0 0 0 0 0 0 0 0 0 0 0 0 0 0.07 0"/>
<feBlend mode="normal" in2="BackgroundImageFix" result="effect1_dropShadow_726_8045"/>
<feBlend mode="normal" in="SourceGraphic" in2="effect1_dropShadow_726_8045" result="shape"/>
</filter>
</defs>
</svg>
